<svg id="Layer_1" xmlns="http://www.w3.org/2000/svg" width="612" height="792" viewBox="0 0 612 792"><style>.st0{fill:#5b5b5b}</style><path class="st0" d="M374.1 101c-128.7 0-233.4 104.7-233.4 233.4 0 44.8 12.7 86.6 34.5 122.1l-153 153c-21.1 21.1-21.1 55.4 0 76.5 10.6 10.6 24.4 16 38.3 16s27.7-5.4 38.3-16l153-153c35.4 21.8 77.5 34.5 122.1 34.5 128.7 0 233.4-104.7 233.4-233.4.2-128.4-104.5-233.1-233.2-233.1zm0 400c-91.8 0-166.7-74.7-166.7-166.7 0-91.8 74.7-166.7 166.7-166.7 91.8 0 166.7 74.7 166.7 166.7 0 91.9-74.9 166.7-166.7 166.7z"/></svg>